{"title":"Hiiro no Kakera: The Tamayori Princess Saga 2","uid":9385049,"size":857784650,"categoryP":"video","categoryS":"tv_shows","magnet":"?xt=urn:btih:20044550956442863a9baa9f0b0ee58f29c70223&amp;dn=Hiiro+no+Kakera%3A+The+Tamayori+Princess+Saga+2&amp;tr=udp%3A%2F%2Ftracker.openbittorrent.com%3A80&amp;tr=udp%3A%2F%2Fopen.demonii.com%3A1337&amp;tr=udp%3A%2F%2Ftracker.coppersurfer.tk%3A6969&amp;tr=udp%3A%2F%2Fexodus.desync.com%3A6969","seeders":2,"leechers":0,"uploader":"p7trick","files":-1,"time":1387788089,"description":"downloaded from watchcartoononline\n\n\nHiiro no Kakera: The Tamayori Princess Saga 2 ENGLISH DUBBED eps 1-13\n\n_________________________________________________________\n\n\nFormat                                   : MPEG-4\nFormat profile                           : Base Media\nCodec ID                                 : isom\nFile size                                : 62.5 MiB\nDuration                                 : 25mn 7s\nOverall bit rate                         : 348 Kbps\nWriting application                      : Lavf55.3.100\n\nVideo\nID                                       : 1\nFormat                                   : AVC\nFormat/Info                              : Advanced Video Codec\nFormat profile                           : &lt;a class=&quot;__cf_email__&quot; href=&quot;/cdn-cgi/l/email-protection&quot; data-cfemail=&quot;df9dbeacbab3b6b1ba9f93ecf1ef&quot;&gt;[email&amp;#160;protected]&lt;/a&gt;&lt;script cf-hash='f9e31' type=&quot;text/javascript&quot;&gt;\n/* &lt;![CDATA[ */!function(){try{var t=&quot;currentScript&quot;in document?document.currentScript:function(){for(var t=document.getElementsByTagName(&quot;script&quot;),e=t.length;e--;)if(t[e].getAttribute(&quot;cf-hash&quot;))return t[e]}();if(t&amp;&amp;t.previousSibling){var e,r,n,i,c=t.previousSibling,a=c.getAttribute(&quot;data-cfemail&quot;);if(a){for(e=&quot;&quot;,r=parseInt(a.substr(0,2),16),n=2;a.length-n;n+=2)i=parseInt(a.substr(n,2),16)^r,e+=String.fromCharCode(i);e=document.createTextNode(e),c.parentNode.replaceChild(e,c)}}}catch(u){}}();/* ]]&gt; */&lt;/script&gt;\nFormat settings, CABAC                   : No\nFormat settings, ReFrames                : 5 frames\nCodec ID                                 : avc1\nCodec ID/Info                            : Advanced Video Coding\nDuration                                 : 25mn 7s\nBit rate                                 : 215 Kbps\nWidth                                    : 640 pixels\nHeight                                   : 360 pixels\nDisplay aspect ratio                     : 16:9\nFrame rate mode                          : Constant\nFrame rate                               : 23.976 fps\nColor space                              : YUV\nChroma subsampling                       : 4:2:0\nBit depth                                : 8 bits\nScan type                                : Progressive\nBits/(Pixel*Frame)                       : 0.039\nStream size                              : 38.7 MiB (62%)\nWriting library                          : x264 core 130 r2274 c832fe9\n\n\nAudio\nID                                       : 2\nFormat                                   : AAC\nFormat/Info                              : Advanced Audio Codec\nFormat profile                           : LC\nCodec ID                                 : 40\nDuration                                 : 25mn 7s\nBit rate mode                            : Constant\nBit rate                                 : 128 Kbps\nChannel(s)                               : 2 channels\nChannel positions                        : Front: L R\nSampling rate                            : 44.1 KHz\nCompression mode                         : Lossy\nStream size                              : 23.0 MiB (37%)\n\n\n_________________________________________________________\n\nSummary:\nAfter awakening her powers as Tamayori-hime, Tamaki and her guardians had apparently succeeded in sealing away Onikirimaru. However, Takuma's body starts to change as the demon blood flowing through his veins consumes him. While the relationship of the guardians is undergoing stress, Logos resumes their activity once more.\n\n\n\nfor updates:\nTwitter - @p7tricktorrent\nFacebook - /p7tricktorrent\n_________________________________________________________\n\nSEED!\n\nshare ratio:\n&quot;Scumbag = 0.1:1\nLeecher = 0.999:1\nMinimum = 1:1\nGood = 3:1\nGreat = 5:1\nAwesome = 10:1\n1337 = 100:1&quot;\t\t","torrent":{"xt":"urn:btih:20044550956442863a9baa9f0b0ee58f29c70223","amp;dn":"Hiiro+no+Kakera%3A+The+Tamayori+Princess+Saga+2","amp;tr":["udp%3A%2F%2Ftracker.openbittorrent.com%3A80","udp%3A%2F%2Fopen.demonii.com%3A1337","udp%3A%2F%2Ftracker.coppersurfer.tk%3A6969","udp%3A%2F%2Fexodus.desync.com%3A6969"],"infoHash":"20044550956442863a9baa9f0b0ee58f29c70223","infoHashBuffer":{"type":"Buffer","data":[32,4,69,80,149,100,66,134,58,155,170,159,11,14,229,143,41,199,2,35]},"announce":[],"urlList":[]}}